<svg xmlns="http://www.w3.org/2000/svg" xmlns:xlink="http://www.w3.org/1999/xlink" version="1.1" id="Your_Icon" x="0px" y="0px" width="100px" height="100px" viewBox="0 0 100 100" enable-background="new 0 0 100 100" xml:space="preserve">
<g>
</g>
<path fill="#000000" stroke="#231F20" stroke-width="0.6625" stroke-linecap="round" stroke-miterlimit="10" d="M52.073,77.66"/>
<g>
</g>
<path fill="#000000" d="M98.265,38.435l-0.274,0.057l0.226-0.166c-3.027-4.109-26.587-8.906-43.99-2.549l0.096,0.263l-0.191-0.204  c-1.127,1.06-2.979,1.105-3.869,1.127c-0.271,0.007-0.399,0.012-0.481,0.03l-0.041-0.001c-0.889-0.021-2.74-0.065-3.869-1.127  l-0.192,0.204l0.096-0.263c-17.405-6.357-40.963-1.561-43.99,2.549l0.226,0.166l-0.274-0.057C0.088,46.35,1.032,49.051,2.843,53.146  L3.1,53.032l-0.183,0.213c3.361,2.884,13.475,4.814,22.936,4.814c3.057,0,6.047-0.201,8.718-0.638  c4.398-0.719,7.281-2.034,8.337-3.806l-0.241-0.144l0.255,0.114c2.479-5.533,3.146-8.768,3.396-9.985l0,0  c0.354-1.688,1.442-2.563,3.227-2.615v0.005l0.14-0.013c0.313,0.001,0.585,0.023,0.776,0.042l0.006-0.064  c1.779,0.055,2.861,0.931,3.212,2.616l0.274-0.057c0,0.002,0.001,0.005,0.002,0.008l-0.273,0.064  c0.259,1.231,0.945,4.505,3.396,9.97l0.256-0.114l-0.24,0.144c1.057,1.772,3.94,3.089,8.341,3.807  c2.671,0.437,5.658,0.638,8.715,0.638c9.461,0,19.577-1.931,22.938-4.815l-0.183-0.213l0.256,0.113  C98.969,49.023,99.912,46.324,98.265,38.435z M92.223,51.368c-0.613,1.9-3.623,3.316-8.475,3.987l0.038,0.277l-0.041-0.277  c-10.49,1.563-17.167,0.246-21.813-1.073l-0.076,0.27l0.059-0.273c-2.323-0.499-3.914-2.491-4.728-5.921l-0.046-0.188l0,0  c-0.146-0.692-0.304-1.377-0.459-2.049c-0.72-3.113-1.399-6.054-0.201-7.925c0.657-1.029,1.849-1.71,3.641-2.084  c17.246-3.604,32.817,0.395,33.289,2.65l0,0c1.336,6.403,0.206,9.602-1.175,12.574l0.254,0.118L92.223,51.368z M42.867,48.185  l-0.048,0.197c-0.813,3.433-2.405,5.427-4.732,5.928l0.059,0.273l-0.077-0.27c-4.649,1.318-11.331,2.634-21.81,1.071l-0.042,0.277  l0.038-0.277c-4.851-0.67-7.863-2.087-8.479-3.987L7.51,51.483l0.254-0.118c-1.38-2.975-2.508-6.175-1.171-12.575  c0.471-2.254,16.037-6.253,33.29-2.649c1.791,0.374,2.98,1.055,3.638,2.082c1.197,1.87,0.55,4.672-0.198,7.917  C43.168,46.811,43.01,47.494,42.867,48.185L42.867,48.185z"/>
</svg>